<svg xmlns="http://www.w3.org/2000/svg" viewBox="0 0 24 24"><path d="M13.8 2A2.3 2.3 0 0 1 16 4.3V10l-1.5.3v-6a.8.8 0 0 0-.8-.8H6.3a.8.8 0 0 0-.8.8v15.4c0 .5.3.8.8.8h5A6.5 6.5 0 0 0 13 22H6.2A2.3 2.3 0 0 1 4 19.7V4.3A2.3 2.3 0 0 1 6.3 2h7.5Zm2.7 9a5.5 5.5 0 1 1 0 11 5.5 5.5 0 0 1 0-11Zm.2 2.6-.1.1a.5.5 0 0 0 0 .6l1.7 1.7h-4.8a.5.5 0 0 0-.5.4v.1a.5.5 0 0 0 .4.5h4.9l-1.7 1.6v.1a.5.5 0 0 0 .7.7l2.6-2.6v-.6l-2.5-2.6h-.1a.5.5 0 0 0-.5 0Zm-6.6 4c0 .4.2 1 .4 1.4H8.8a.8.8 0 0 1 0-1.5H10Z" fill="#174ae4"/></svg>