<svg width="28" height="28" viewBox="0 0 28 28" fill="none" xmlns="http://www.w3.org/2000/svg">
<rect width="28" height="28" rx="14" fill="#DCDCDC"/>
<path d="M13.9223 8.00449L14 8C14.3419 8 14.6237 8.25736 14.6622 8.58892L14.6667 8.66667V13.3333H19.3333C19.6752 13.3333 19.957 13.5907 19.9955 13.9223L20 14C20 14.3419 19.7427 14.6237 19.4111 14.6622L19.3333 14.6667H14.6667V19.3333C14.6667 19.6752 14.4093 19.957 14.0777 19.9955L14 20C13.6581 20 13.3763 19.7427 13.3378 19.4111L13.3333 19.3333V14.6667H8.66667C8.32477 14.6667 8.04299 14.4093 8.00449 14.0777L8 14C8 13.6581 8.25736 13.3763 8.58892 13.3378L8.66667 13.3333H13.3333V8.66667C13.3333 8.32477 13.5907 8.04299 13.9223 8.00449Z" fill="#212121"/>
</svg>